<svg width="21" height="21" viewBox="0 0 21 21" fill="none" xmlns="http://www.w3.org/2000/svg">
<path d="M5.22677 2.09071C5.22677 1.53622 5.44704 1.00444 5.83912 0.612354C6.2312 0.22027 6.76298 0 7.31747 0H13.5896C14.1441 0 14.6759 0.22027 15.0679 0.612354C15.46 1.00444 15.6803 1.53622 15.6803 2.09071V4.18141H19.8617C20.139 4.18141 20.4048 4.29155 20.6009 4.48759C20.7969 4.68363 20.9071 4.94952 20.9071 5.22677C20.9071 5.50401 20.7969 5.7699 20.6009 5.96594C20.4048 6.16198 20.139 6.27212 19.8617 6.27212H18.7442L17.8379 18.9648C17.8004 19.4923 17.5643 19.9859 17.1774 20.3463C16.7904 20.7067 16.2812 20.9071 15.7524 20.9071H5.15359C4.62479 20.9071 4.11562 20.7067 3.72865 20.3463C3.34168 19.9859 3.10566 19.4923 3.06811 18.9648L2.16388 6.27212H1.04535C0.768108 6.27212 0.502218 6.16198 0.306177 5.96594C0.110135 5.7699 0 5.50401 0 5.22677C0 4.94952 0.110135 4.68363 0.306177 4.48759C0.502218 4.29155 0.768108 4.18141 1.04535 4.18141H5.22677V2.09071ZM7.31747 4.18141H13.5896V2.09071H7.31747V4.18141ZM4.25877 6.27212L5.15464 18.8164H15.7535L16.6493 6.27212H4.25877ZM8.36282 8.36282C8.64007 8.36282 8.90596 8.47296 9.102 8.669C9.29804 8.86504 9.40818 9.13093 9.40818 9.40818V15.6803C9.40818 15.9575 9.29804 16.2234 9.102 16.4195C8.90596 16.6155 8.64007 16.7256 8.36282 16.7256C8.08558 16.7256 7.81969 16.6155 7.62365 16.4195C7.42761 16.2234 7.31747 15.9575 7.31747 15.6803V9.40818C7.31747 9.13093 7.42761 8.86504 7.62365 8.669C7.81969 8.47296 8.08558 8.36282 8.36282 8.36282ZM12.5442 8.36282C12.8215 8.36282 13.0874 8.47296 13.2834 8.669C13.4795 8.86504 13.5896 9.13093 13.5896 9.40818V15.6803C13.5896 15.9575 13.4795 16.2234 13.2834 16.4195C13.0874 16.6155 12.8215 16.7256 12.5442 16.7256C12.267 16.7256 12.0011 16.6155 11.8051 16.4195C11.609 16.2234 11.4989 15.9575 11.4989 15.6803V9.40818C11.4989 9.13093 11.609 8.86504 11.8051 8.669C12.0011 8.47296 12.267 8.36282 12.5442 8.36282Z" fill="#FC4E45"/>
</svg>
