<svg width="17" height="17" viewBox="0 0 17 17" fill="none" xmlns="http://www.w3.org/2000/svg">
<path d="M8.49999 12.2984C8.35833 12.2984 8.22551 12.2765 8.10156 12.2326C7.9776 12.1886 7.86249 12.1132 7.75624 12.0063L3.93125 8.18125C3.71875 7.96875 3.61675 7.72083 3.62525 7.4375C3.63375 7.15417 3.73575 6.90625 3.93125 6.69375C4.14375 6.48125 4.39627 6.37075 4.68881 6.36225C4.98135 6.35375 5.23352 6.4554 5.44531 6.66719L7.43749 8.65938V1.0625C7.43749 0.761462 7.53949 0.509295 7.74349 0.306004C7.94749 0.102712 8.19966 0.000711997 8.49999 3.66379e-06C8.80033 -0.000704669 9.05285 0.101295 9.25756 0.306004C9.46226 0.510712 9.56391 0.762878 9.56249 1.0625V8.65938L11.5547 6.66719C11.7672 6.45469 12.0197 6.35269 12.3122 6.36119C12.6048 6.36969 12.8569 6.48054 13.0687 6.69375C13.2635 6.90625 13.3655 7.15417 13.3747 7.4375C13.3839 7.72083 13.2819 7.96875 13.0687 8.18125L9.24374 12.0063C9.13749 12.1125 9.02239 12.1879 8.89843 12.2326C8.77447 12.2772 8.64166 12.2991 8.49999 12.2984ZM2.125 17C1.54062 17 1.04054 16.7921 0.624749 16.3763C0.208958 15.9605 0.000708333 15.4601 0 14.875V12.75C0 12.449 0.102 12.1968 0.306 11.9935C0.51 11.7902 0.762166 11.6882 1.0625 11.6875C1.36283 11.6868 1.61535 11.7888 1.82006 11.9935C2.02477 12.1982 2.12642 12.4504 2.125 12.75V14.875H14.875V12.75C14.875 12.449 14.977 12.1968 15.181 11.9935C15.385 11.7902 15.6372 11.6882 15.9375 11.6875C16.2378 11.6868 16.4903 11.7888 16.695 11.9935C16.8998 12.1982 17.0014 12.4504 17 12.75V14.875C17 15.4594 16.7921 15.9598 16.3763 16.3763C15.9605 16.7928 15.4601 17.0007 14.875 17H2.125Z" fill="white"/>
</svg>
