<svg width="27" height="22" viewBox="0 0 27 22" fill="none" xmlns="http://www.w3.org/2000/svg">
<path fill-rule="evenodd" clip-rule="evenodd" d="M15.8507 3.79457L20.0615 8.00546C20.3404 8.28453 20.497 8.66288 20.497 9.05736C20.497 9.45185 20.3404 9.8302 20.0615 10.1093L14.3428 15.8313L8.02486 9.5133L13.7452 3.79457C14.0243 3.51576 14.4026 3.35914 14.7971 3.35914C15.1916 3.35914 15.5716 3.51576 15.8507 3.79457ZM6.29882 11.2393L3.0226 14.5188C2.74378 14.7979 2.58717 15.1762 2.58717 15.5707C2.58717 15.9652 2.74378 16.3436 3.0226 16.6226L5.22411 18.8274H11.3467L12.6168 17.5573L6.29882 11.2393ZM21.7892 11.8353L14.7987 18.8274H24.9759C25.2998 18.8274 25.6104 18.9561 25.8394 19.1851C26.0684 19.4141 26.1971 19.7248 26.1971 20.0486C26.1971 20.3725 26.0684 20.6832 25.8394 20.9122C25.6104 21.1412 25.2998 21.2699 24.9759 21.2699H4.21454L1.29493 18.3503C0.929903 17.9853 0.640344 17.5519 0.442789 17.075C0.245235 16.5981 0.143555 16.0869 0.143555 15.5707C0.143555 15.0545 0.245235 14.5433 0.442789 14.0664C0.640344 13.5895 0.929903 13.1562 1.29493 12.7911L12.0192 2.06691C12.3842 1.70188 12.8175 1.41232 13.2944 1.21476C13.7714 1.01721 14.2825 0.915527 14.7987 0.915527C15.315 0.915527 15.8261 1.01721 16.303 1.21476C16.78 1.41232 17.2133 1.70188 17.5783 2.06691L21.7892 6.27779C22.1542 6.6428 22.4438 7.07614 22.6413 7.55306C22.8389 8.02998 22.9406 8.54115 22.9406 9.05736C22.9406 9.57358 22.8389 10.0847 22.6413 10.5617C22.4438 11.0386 22.1542 11.4703 21.7892 11.8353Z" fill="#2E5BDF"/>
</svg>
