<svg width="19" height="19" viewBox="0 0 19 19" fill="none" xmlns="http://www.w3.org/2000/svg">
<path d="M15.75 3.36719H3.75C2.925 3.36719 2.2575 4.04219 2.2575 4.86719L2.25 13.8672C2.25 14.6922 2.925 15.3672 3.75 15.3672H15.75C16.575 15.3672 17.25 14.6922 17.25 13.8672V4.86719C17.25 4.04219 16.575 3.36719 15.75 3.36719ZM15.45 6.55469L10.1475 9.86969C9.9075 10.0197 9.5925 10.0197 9.3525 9.86969L4.05 6.55469C3.9748 6.51247 3.90894 6.45543 3.85642 6.38703C3.80389 6.31862 3.7658 6.24027 3.74443 6.15672C3.72307 6.07316 3.71888 5.98614 3.73212 5.90092C3.74536 5.8157 3.77575 5.73405 3.82146 5.66091C3.86717 5.58778 3.92724 5.52468 3.99804 5.47543C4.06885 5.42619 4.1489 5.39182 4.23337 5.37441C4.31784 5.357 4.40496 5.35691 4.48947 5.37415C4.57397 5.39138 4.6541 5.42559 4.725 5.47469L9.75 8.61719L14.775 5.47469C14.8459 5.42559 14.926 5.39138 15.0105 5.37415C15.095 5.35691 15.1822 5.357 15.2666 5.37441C15.3511 5.39182 15.4312 5.42619 15.502 5.47543C15.5728 5.52468 15.6328 5.58778 15.6785 5.66091C15.7242 5.73405 15.7546 5.8157 15.7679 5.90092C15.7811 5.98614 15.7769 6.07316 15.7556 6.15672C15.7342 6.24027 15.6961 6.31862 15.6436 6.38703C15.5911 6.45543 15.5252 6.51247 15.45 6.55469Z" fill="white"/>
</svg>
