<svg width="17" height="17" viewBox="0 0 17 17" fill="none" xmlns="http://www.w3.org/2000/svg">
<path d="M12.9696 15.3669C12.3596 15.3669 11.5027 15.1463 10.2196 14.4294C8.65928 13.5544 7.4524 12.7466 5.90052 11.1988C4.40427 9.70346 3.67615 8.73534 2.65709 6.88096C1.50584 4.78721 1.70209 3.68971 1.92146 3.22065C2.18271 2.66002 2.56834 2.32471 3.06677 1.9919C3.34988 1.80641 3.64948 1.6474 3.96178 1.5169C3.99303 1.50346 4.02209 1.49065 4.04803 1.47909C4.20271 1.4094 4.43709 1.30409 4.73396 1.41659C4.93209 1.49096 5.10896 1.64315 5.38584 1.91659C5.95365 2.47659 6.72959 3.72377 7.01584 4.33627C7.20802 4.74909 7.33521 5.02159 7.33553 5.32721C7.33553 5.68502 7.15553 5.96096 6.93709 6.25877C6.89615 6.31471 6.85552 6.36815 6.81615 6.42002C6.57834 6.73252 6.52615 6.82284 6.56052 6.98409C6.63021 7.30815 7.1499 8.27284 8.00396 9.12502C8.85803 9.97721 9.7949 10.4641 10.1202 10.5335C10.2883 10.5694 10.3805 10.515 10.703 10.2688C10.7493 10.2335 10.7968 10.1969 10.8465 10.1603C11.1796 9.91252 11.4427 9.73721 11.7921 9.73721H11.794C12.098 9.73721 12.3583 9.86909 12.7896 10.0866C13.3521 10.3703 14.6368 11.1363 15.2002 11.7047C15.4743 11.981 15.6271 12.1572 15.7018 12.355C15.8143 12.6528 15.7083 12.8863 15.6393 13.0425C15.6277 13.0685 15.6149 13.0969 15.6015 13.1285C15.4699 13.4402 15.31 13.7392 15.1236 14.0216C14.7915 14.5185 14.4549 14.9031 13.893 15.1647C13.6045 15.3012 13.2887 15.3703 12.9696 15.3669Z" fill="white"/>
</svg>
