<svg width="12" height="14" viewBox="0 0 12 14" fill="none" xmlns="http://www.w3.org/2000/svg">
<path d="M6 0.917969C7.39239 0.917969 8.72774 1.47109 9.71231 2.45566C10.6969 3.44022 11.25 4.77558 11.25 6.16797C11.25 7.96113 10.2723 9.4288 9.24217 10.4817C8.72748 11.0021 8.16587 11.4739 7.5645 11.8911L7.316 12.0602L7.19933 12.1378L6.97942 12.2778L6.78342 12.3974L6.54075 12.5386C6.37604 12.6326 6.18966 12.682 6 12.682C5.81034 12.682 5.62396 12.6326 5.45925 12.5386L5.21658 12.3974L4.91325 12.2107L4.80125 12.1378L4.56208 11.9786C3.91332 11.5396 3.30903 11.0383 2.75783 10.4817C1.72767 9.42822 0.75 7.96113 0.75 6.16797C0.75 4.77558 1.30312 3.44022 2.28769 2.45566C3.27226 1.47109 4.60761 0.917969 6 0.917969ZM6 4.41797C5.77019 4.41797 5.54262 4.46323 5.3303 4.55118C5.11798 4.63913 4.92507 4.76803 4.76256 4.93053C4.60006 5.09303 4.47116 5.28595 4.38321 5.49827C4.29526 5.71059 4.25 5.93816 4.25 6.16797C4.25 6.39778 4.29526 6.62534 4.38321 6.83766C4.47116 7.04998 4.60006 7.2429 4.76256 7.40541C4.92507 7.56791 5.11798 7.69681 5.3303 7.78476C5.54262 7.8727 5.77019 7.91797 6 7.91797C6.46413 7.91797 6.90925 7.73359 7.23744 7.40541C7.56563 7.07722 7.75 6.6321 7.75 6.16797C7.75 5.70384 7.56563 5.25872 7.23744 4.93053C6.90925 4.60234 6.46413 4.41797 6 4.41797Z" fill="white"/>
</svg>
