<svg width="21" height="21" viewBox="0 0 21 21" fill="none" xmlns="http://www.w3.org/2000/svg">
<path d="M18.1075 10.7175C18.25 10.3733 18.25 9.93583 18.25 9.0625C18.25 8.18917 18.25 7.75167 18.1075 7.4075C18.0133 7.17994 17.8751 6.97318 17.701 6.79902C17.5268 6.62487 17.3201 6.48673 17.0925 6.3925C16.7483 6.25 16.3108 6.25 15.4375 6.25H10C8.95 6.25 8.425 6.25 8.02417 6.45417C7.67105 6.63398 7.38398 6.92105 7.20417 7.27417C7 7.67417 7 8.19917 7 9.25V14.6875C7 15.5608 7 15.9983 7.1425 16.3425C7.33333 16.8017 7.69833 17.1675 8.1575 17.3575C8.50167 17.5 8.93917 17.5 9.8125 17.5C10.6858 17.5 11.1233 17.5 11.4675 17.3575M18.1075 10.7175C18.0133 10.9451 17.8751 11.1518 17.701 11.326C17.5268 11.5001 17.3201 11.6383 17.0925 11.7325C16.7483 11.875 16.3108 11.875 15.4375 11.875C14.5642 11.875 14.1267 11.875 13.7825 12.0175C13.5549 12.1117 13.3482 12.2499 13.174 12.424C12.9999 12.5982 12.8617 12.8049 12.7675 13.0325C12.625 13.3767 12.625 13.8142 12.625 14.6875C12.625 15.5608 12.625 15.9983 12.4825 16.3425C12.3883 16.5701 12.2501 16.7768 12.076 16.951C11.9018 17.1251 11.6951 17.2633 11.4675 17.3575M18.1075 10.7175C17.6592 12.2632 16.8346 13.6737 15.7075 14.8226C14.5804 15.9715 13.186 16.823 11.6492 17.3008L11.4675 17.3575M14.5 6.25V5.5C14.5 4.45 14.5 3.925 14.2958 3.52417C14.1162 3.17118 13.8295 2.88412 13.4767 2.70417C13.075 2.5 12.55 2.5 11.5 2.5H6.25C5.2 2.5 4.675 2.5 4.27417 2.70417C3.92105 2.88398 3.63398 3.17105 3.45417 3.52417C3.25 3.92417 3.25 4.44917 3.25 5.5V10.75C3.25 11.8 3.25 12.325 3.45417 12.7258C3.63417 13.0792 3.92083 13.3658 4.27417 13.5458C4.67417 13.75 5.2 13.75 6.25083 13.75H7" stroke="#F3F3F3" stroke-width="1.5" stroke-linecap="round" stroke-linejoin="round"/>
</svg>
