<svg width="16" height="16" viewBox="0 0 16 16" fill="none" xmlns="http://www.w3.org/2000/svg">
<path d="M8.5 15.5C6.75 15.5 5.20139 14.9689 3.85417 13.9067C2.50694 12.8444 1.63194 11.4867 1.22917 9.83333C1.17361 9.625 1.21528 9.43416 1.35417 9.26083C1.49306 9.0875 1.68056 8.98666 1.91667 8.95833C2.13889 8.93055 2.34028 8.97222 2.52083 9.08333C2.70139 9.19444 2.82639 9.36111 2.89583 9.58333C3.22917 10.8333 3.91667 11.8542 4.95833 12.6458C6 13.4375 7.18055 13.8333 8.5 13.8333C10.125 13.8333 11.5036 13.2675 12.6358 12.1358C13.7681 11.0042 14.3339 9.62555 14.3333 8C14.3328 6.37444 13.7669 4.99611 12.6358 3.865C11.5047 2.73389 10.1261 2.16778 8.5 2.16667C7.54167 2.16667 6.64583 2.38889 5.8125 2.83333C4.97917 3.27778 4.27778 3.88889 3.70833 4.66667H5.16667C5.40278 4.66667 5.60083 4.74667 5.76083 4.90667C5.92083 5.06667 6.00056 5.26444 6 5.5C5.99944 5.73555 5.91944 5.93361 5.76 6.09417C5.60055 6.25472 5.40278 6.33444 5.16667 6.33333H1.83333C1.59722 6.33333 1.39944 6.25333 1.24 6.09333C1.08056 5.93333 1.00056 5.73555 1 5.5V2.16667C1 1.93056 1.08 1.73278 1.24 1.57333C1.4 1.41389 1.59778 1.33389 1.83333 1.33333C2.06889 1.33278 2.26694 1.41278 2.4275 1.57333C2.58806 1.73389 2.66778 1.93167 2.66667 2.16667V3.29167C3.375 2.40278 4.23972 1.71528 5.26083 1.22917C6.28194 0.743055 7.36167 0.5 8.5 0.5C9.54167 0.5 10.5175 0.698056 11.4275 1.09417C12.3375 1.49028 13.1292 2.02472 13.8025 2.6975C14.4758 3.37028 15.0106 4.16194 15.4067 5.0725C15.8028 5.98305 16.0006 6.95889 16 8C15.9994 9.04111 15.8017 10.0169 15.4067 10.9275C15.0117 11.8381 14.4769 12.6297 13.8025 13.3025C13.1281 13.9753 12.3364 14.51 11.4275 14.9067C10.5186 15.3033 9.54278 15.5011 8.5 15.5ZM9.33333 7.66666L11.4167 9.75C11.5694 9.90277 11.6458 10.0972 11.6458 10.3333C11.6458 10.5694 11.5694 10.7639 11.4167 10.9167C11.2639 11.0694 11.0694 11.1458 10.8333 11.1458C10.5972 11.1458 10.4028 11.0694 10.25 10.9167L7.91667 8.58333C7.83333 8.5 7.77083 8.40639 7.72917 8.3025C7.6875 8.19861 7.66667 8.09083 7.66667 7.97916V4.66667C7.66667 4.43055 7.74667 4.23278 7.90667 4.07333C8.06667 3.91389 8.26444 3.83389 8.5 3.83333C8.73555 3.83278 8.93361 3.91278 9.09417 4.07333C9.25472 4.23389 9.33444 4.43167 9.33333 4.66667V7.66666Z" fill="#5069E7"/>
</svg>
