<svg width="17" height="17" viewBox="0 0 17 17" fill="none" xmlns="http://www.w3.org/2000/svg">
<path d="M10.5 7.16667L13.5353 5.64933C13.6369 5.59856 13.7499 5.57459 13.8633 5.5797C13.9768 5.58481 14.0871 5.61883 14.1837 5.67854C14.2804 5.73824 14.3602 5.82165 14.4155 5.92085C14.4709 6.02004 14.4999 6.13174 14.5 6.24533V10.7547C14.4999 10.8683 14.4709 10.98 14.4155 11.0792C14.3602 11.1783 14.2804 11.2618 14.1837 11.3215C14.0871 11.3812 13.9768 11.4152 13.8633 11.4203C13.7499 11.4254 13.6369 11.4014 13.5353 11.3507L10.5 9.83333V7.16667ZM2.5 5.83333C2.5 5.47971 2.64048 5.14057 2.89052 4.89052C3.14057 4.64048 3.47971 4.5 3.83333 4.5H9.16667C9.52029 4.5 9.85943 4.64048 10.1095 4.89052C10.3595 5.14057 10.5 5.47971 10.5 5.83333V11.1667C10.5 11.5203 10.3595 11.8594 10.1095 12.1095C9.85943 12.3595 9.52029 12.5 9.16667 12.5H3.83333C3.47971 12.5 3.14057 12.3595 2.89052 12.1095C2.64048 11.8594 2.5 11.5203 2.5 11.1667V5.83333Z" stroke="#23B7E5" stroke-width="1.2" stroke-linecap="round" stroke-linejoin="round"/>
</svg>
