<svg width="21" height="20" viewBox="0 0 21 20" fill="none" xmlns="http://www.w3.org/2000/svg">
<path d="M18.3359 0.882324C18.8744 0.882437 19.3359 1.07468 19.7197 1.4585C20.1034 1.84236 20.2946 2.30343 20.2939 2.84131V14.5942C20.2939 15.1328 20.1029 15.5942 19.7197 15.978C19.3366 16.3618 18.8751 16.5538 18.3359 16.5532H4.62402L2.37109 18.8052C2.06099 19.1153 1.70585 19.1851 1.30566 19.0142C0.905411 18.8431 0.705402 18.5366 0.706055 18.0952V2.84131C0.706055 2.30263 0.898298 1.84177 1.28223 1.4585C1.66616 1.07522 2.12702 0.882977 2.66504 0.882324H18.3359Z" fill="#5069E7"/>
<path d="M8.76316 4.87712C9.11622 3.84386 10.5438 3.81257 10.9624 4.78324L10.9978 4.87771L11.4743 6.27113C11.5835 6.59069 11.7599 6.88312 11.9917 7.12869C12.2235 7.37426 12.5053 7.56726 12.818 7.69467L12.9462 7.74249L14.3395 8.21838C15.3727 8.57146 15.404 9.99913 14.434 10.4177L14.3395 10.4532L12.9462 10.9296C12.6265 11.0388 12.334 11.2152 12.0883 11.447C11.8427 11.6788 11.6496 11.9607 11.5221 12.2735L11.4743 12.401L10.9984 13.795C10.6454 14.8283 9.21777 14.8596 8.79977 13.8895L8.76316 13.795L8.2873 12.4016C8.17818 12.0819 8.00177 11.7894 7.76996 11.5437C7.53815 11.298 7.25634 11.1049 6.94355 10.9775L6.81602 10.9296L5.42267 10.4538C4.38888 10.1007 4.35759 8.67301 5.32821 8.25499L5.42267 8.21838L6.81602 7.74249C7.13557 7.6333 7.42798 7.45684 7.67353 7.22502C7.91909 6.9932 8.11208 6.71141 8.23948 6.39867L8.2873 6.27113L8.76316 4.87712ZM14.604 2.84131C14.7145 2.84131 14.8227 2.87229 14.9164 2.93074C15.0101 2.98919 15.0856 3.07276 15.1342 3.17195L15.1625 3.24103L15.3692 3.84682L15.9755 4.05347C16.0862 4.09108 16.1832 4.1607 16.2543 4.25351C16.3254 4.34633 16.3673 4.45816 16.3748 4.57483C16.3822 4.6915 16.3549 4.80776 16.2962 4.90888C16.2375 5.00999 16.1502 5.09141 16.0452 5.14282L15.9755 5.17116L15.3698 5.37781L15.1631 5.98418C15.1254 6.09485 15.0558 6.19184 14.9629 6.26286C14.8701 6.33389 14.7582 6.37575 14.6416 6.38315C14.5249 6.39055 14.4087 6.36315 14.3076 6.30442C14.2065 6.24569 14.1252 6.15828 14.0738 6.05326L14.0455 5.98418L13.8388 5.3784L13.2325 5.17175C13.1218 5.13414 13.0248 5.06452 12.9537 4.9717C12.8826 4.87888 12.8407 4.76705 12.8332 4.65038C12.8258 4.53371 12.8531 4.41745 12.9118 4.31634C12.9705 4.21522 13.0578 4.1338 13.1628 4.0824L13.2325 4.05406L13.8383 3.84741L14.0449 3.24103C14.0847 3.12438 14.16 3.02311 14.2603 2.95142C14.3606 2.87974 14.4807 2.84123 14.604 2.84131Z" fill="#F9F9F9"/>
</svg>
