<svg width="194" height="227" viewBox="0 0 194 227" fill="none" xmlns="http://www.w3.org/2000/svg">
<path fill-rule="evenodd" clip-rule="evenodd" d="M134.311 1.4696C132.187 2.2296 128.884 4.3476 126.968 6.1756C123.184 9.7886 118.775 18.1536 118.76 21.7506C118.753 23.3236 118.156 24.0006 116.777 24.0006C112.319 24.0006 113.748 37.1396 118.276 37.7906C119.402 37.9526 120.883 39.4256 121.635 41.1306C123.471 45.2966 129.025 50.6886 133.346 52.5016C137.808 54.3736 144.683 54.4286 148.98 52.6256C153.501 50.7286 159.088 45.6106 160.577 42.0006C161.259 40.3456 162.979 38.4316 164.398 37.7466C168.604 35.7166 170.059 24.0006 166.106 24.0006C165.267 24.0006 164.083 21.8626 163.163 18.6866C160.972 11.1196 156.744 5.7526 150.514 2.6356C144.684 -0.281399 140.122 -0.610399 134.311 1.4696ZM65.5219 20.6026C59.3534 22.5726 53.1848 26.7856 49.6465 31.4446C46.2455 35.9216 42.4173 44.3156 41.526 49.2506C41.0321 51.9906 40.3519 53.0006 39.0035 53.0006C34.9452 53.0006 33.8169 59.6186 36.4948 67.7146C38.152 72.7226 39.828 74.3856 42.3158 73.4886C43.0258 73.2326 44.3235 74.7056 45.3363 76.9176C51.8583 91.1576 68.2616 98.9226 82.3932 94.4586C89.4042 92.2446 97.8752 84.8306 101.421 77.8056C102.775 75.1216 104.306 73.1886 104.822 73.5096C106.858 74.7726 109.46 71.8836 111.158 66.4746C113.531 58.9136 112.06 53.0006 107.804 53.0006C106.533 53.0006 105.924 51.9416 105.541 49.0686C104.755 43.1866 100.532 34.7236 95.8257 29.5956C87.9402 21.0056 75.666 17.3626 65.5219 20.6026ZM134.941 61.8206C134.26 62.2536 133.415 64.7226 133.063 67.3046C132.471 71.6346 132.588 72.0006 134.549 72.0006C136.485 72.0006 136.676 72.5396 136.676 78.0006C136.676 81.3006 136.497 84.0006 136.277 84.0006C136.058 84.0006 133.034 79.5006 129.556 74.0006C126.08 68.5006 122.996 64.0006 122.707 64.0006C122.417 64.0006 121.382 66.6966 120.408 69.9916C118.571 76.2056 114.976 81.4816 111.912 82.4576C109.554 83.2096 105.585 90.4396 105.985 93.2586C106.294 95.4506 106.66 95.5116 122.236 96.0006C136.197 96.4386 138.68 96.7746 142.287 98.7116C151.995 103.926 157.838 113.678 157.776 124.561C157.756 128.077 157.428 131.935 157.05 133.134C156.372 135.276 156.488 135.303 163.745 134.687C173.168 133.888 183.518 130.687 186.116 127.77C187.83 125.844 188.538 121.875 190.797 101.501C194.029 72.3596 194.066 70.0676 191.362 66.6156C187.78 62.0426 184.485 61.0006 173.614 61.0006H163.647L155.888 72.4596C151.62 78.7616 147.792 83.9366 147.382 83.9596C146.971 83.9826 146.635 81.3006 146.635 78.0006C146.635 72.6676 146.856 72.0006 148.626 72.0006C150.166 72.0006 150.618 71.3336 150.618 69.0656C150.618 67.4516 150.181 64.9766 149.647 63.5656C148.746 61.1856 148.224 61.0016 142.427 61.0156C138.99 61.0246 135.621 61.3866 134.941 61.8206ZM10.0391 108.023C5.56264 110.398 2.58892 114.07 1.09809 119.066C0.158966 122.215 0.686785 129.202 4.19628 160.122C6.52367 180.615 8.93769 198.215 9.56211 199.232C12.5896 204.167 29.3802 209.022 50.0339 210.934C62.5253 212.09 86.8338 212.361 91.635 211.396L94.6445 210.792L92.7792 206.558C87.4732 194.512 87.9851 179.55 94.1426 166.698C98.4169 157.777 103.067 152.334 110.899 147.082C119.086 141.593 127.822 139.001 138.139 139.001H146.364L146.997 134.361C148.711 121.809 147.482 116.03 141.993 110.815C137.598 106.639 134.6 106.001 119.372 106.001H105.186L93.7931 122.559L82.4001 139.117L81.7518 133.809C80.5388 123.883 80.7101 122.001 82.8274 122.001C86.6147 122.001 87.7102 119.626 86.6058 113.811C86.051 110.891 85.1587 107.939 84.6239 107.251C83.9696 106.411 80.6235 106.001 74.4331 106.001C68.2496 106.001 64.8915 106.412 64.2282 107.251C63.6855 107.939 62.6726 110.936 61.9765 113.913C60.8223 118.856 60.8701 119.441 62.5352 120.663C63.5371 121.399 65.2151 122.001 66.2648 122.001C67.5953 122.001 67.9897 122.48 67.5684 123.583C67.2358 124.453 66.9639 128.053 66.9639 131.583C66.9639 135.113 66.6273 137.984 66.217 137.963C65.8067 137.942 62.109 132.461 58.0009 125.784C53.8929 119.107 49.2969 111.924 47.7872 109.822L45.0415 106.001L29.3633 106.045C15.8392 106.083 13.1831 106.355 10.0391 108.023ZM124.773 150.978C98.1809 160.855 90.5544 195.597 110.645 215.334C129.573 233.928 161.148 228.864 172.658 205.387C182.222 185.88 174.533 162.824 155.1 152.73C149.877 150.017 147.933 149.584 139.663 149.294C132.052 149.026 129.141 149.355 124.773 150.978ZM133.357 161.668C132.991 162.034 132.692 166.984 132.692 172.668V183.001H122.236H111.779V188.001V193.001H122.201H132.623L132.906 203.251L133.19 213.501L137.921 213.806L142.651 214.111V203.59V193.069L153.357 192.785L164.063 192.501L164.364 187.785L164.667 183.07L153.908 182.785L143.149 182.501L142.866 171.751L142.583 161.001H138.302C135.947 161.001 133.721 161.301 133.357 161.668Z" fill="#363A45"/>
</svg>
