<svg width="16" height="18" viewBox="0 0 16 18" fill="none" xmlns="http://www.w3.org/2000/svg">
<path d="M8.5752 0.103516H2.44846C1.97055 0.103516 1.51221 0.293367 1.17427 0.631303C0.836335 0.96924 0.646484 1.42758 0.646484 1.9055V15.6005C0.646484 16.0785 0.836335 16.5368 1.17427 16.8747C1.51221 17.2127 1.97055 17.4025 2.44846 17.4025H13.2603C13.497 17.4025 13.7313 17.3559 13.9499 17.2654C14.1686 17.1748 14.3672 17.0421 14.5345 16.8747C14.7019 16.7074 14.8346 16.5088 14.9252 16.2901C15.0157 16.0715 15.0623 15.8372 15.0623 15.6005V6.59064L10.0168 5.14906L8.5752 0.103516Z" fill="url(#paint0_linear_2828_108527)"/>
<path d="M8.5752 0.103516H2.44846C1.97055 0.103516 1.51221 0.293367 1.17427 0.631303C0.836335 0.96924 0.646484 1.42758 0.646484 1.9055V15.6005C0.646484 16.0785 0.836335 16.5368 1.17427 16.8747C1.51221 17.2127 1.97055 17.4025 2.44846 17.4025H13.2603C13.497 17.4025 13.7313 17.3559 13.9499 17.2654C14.1686 17.1748 14.3672 17.0421 14.5345 16.8747C14.7019 16.7074 14.8346 16.5088 14.9252 16.2901C15.0157 16.0715 15.0623 15.8372 15.0623 15.6005V6.59064L10.0168 5.14906L8.5752 0.103516Z" fill="url(#paint1_radial_2828_108527)" fill-opacity="0.5"/>
<path d="M8.5752 0.103516H2.44846C1.97055 0.103516 1.51221 0.293367 1.17427 0.631303C0.836335 0.96924 0.646484 1.42758 0.646484 1.9055V15.6005C0.646484 16.0785 0.836335 16.5368 1.17427 16.8747C1.51221 17.2127 1.97055 17.4025 2.44846 17.4025H13.2603C13.497 17.4025 13.7313 17.3559 13.9499 17.2654C14.1686 17.1748 14.3672 17.0421 14.5345 16.8747C14.7019 16.7074 14.8346 16.5088 14.9252 16.2901C15.0157 16.0715 15.0623 15.8372 15.0623 15.6005V6.59064L10.0168 5.14906L8.5752 0.103516Z" fill="url(#paint2_radial_2828_108527)" fill-opacity="0.3"/>
<path d="M8.57617 5.50946V0.103516L15.0633 6.59064H9.65736C9.37061 6.59064 9.09561 6.47673 8.89284 6.27397C8.69008 6.07121 8.57617 5.79621 8.57617 5.50946Z" fill="url(#paint3_linear_2828_108527)"/>
<path d="M4.42731 9.11523C4.28394 9.11523 4.14644 9.17219 4.04506 9.27357C3.94367 9.37495 3.88672 9.51245 3.88672 9.65583C3.88672 9.7992 3.94367 9.9367 4.04506 10.0381C4.14644 10.1395 4.28394 10.1964 4.42731 10.1964H11.2748C11.4182 10.1964 11.5557 10.1395 11.6571 10.0381C11.7585 9.9367 11.8154 9.7992 11.8154 9.65583C11.8154 9.51245 11.7585 9.37495 11.6571 9.27357C11.5557 9.17219 11.4182 9.11523 11.2748 9.11523H4.42731ZM3.88672 11.8182C3.88672 11.6748 3.94367 11.5373 4.04506 11.4359C4.14644 11.3346 4.28394 11.2776 4.42731 11.2776H11.2748C11.4182 11.2776 11.5557 11.3346 11.6571 11.4359C11.7585 11.5373 11.8154 11.6748 11.8154 11.8182C11.8154 11.9616 11.7585 12.0991 11.6571 12.2005C11.5557 12.3018 11.4182 12.3588 11.2748 12.3588H4.42731C4.28394 12.3588 4.14644 12.3018 4.04506 12.2005C3.94367 12.0991 3.88672 11.9616 3.88672 11.8182ZM4.42731 13.44C4.28394 13.44 4.14644 13.4969 4.04506 13.5983C3.94367 13.6997 3.88672 13.8372 3.88672 13.9806C3.88672 14.124 3.94367 14.2615 4.04506 14.3628C4.14644 14.4642 4.28394 14.5212 4.42731 14.5212H11.2748C11.4182 14.5212 11.5557 14.4642 11.6571 14.3628C11.7585 14.2615 11.8154 14.124 11.8154 13.9806C11.8154 13.8372 11.7585 13.6997 11.6571 13.5983C11.5557 13.4969 11.4182 13.44 11.2748 13.44H4.42731Z" fill="url(#paint4_linear_2828_108527)" fill-opacity="0.9"/>
<defs>
<linearGradient id="paint0_linear_2828_108527" x1="10.7376" y1="0.103516" x2="11.738" y2="13.5088" gradientUnits="userSpaceOnUse">
<stop stop-color="#6CE0FF"/>
<stop offset="1" stop-color="#4894FE"/>
</linearGradient>
<radialGradient id="paint1_radial_2828_108527" cx="0" cy="0" r="1" gradientUnits="userSpaceOnUse" gradientTransform="translate(15.6636 0.643976) rotate(133.966) scale(11.7669 6.95539)">
<stop offset="0.362" stop-color="#4A43CB"/>
<stop offset="1" stop-color="#4A43CB" stop-opacity="0"/>
</radialGradient>
<radialGradient id="paint2_radial_2828_108527" cx="0" cy="0" r="1" gradientUnits="userSpaceOnUse" gradientTransform="translate(15.6636 0.643976) rotate(133.966) scale(11.7669 6.95539)">
<stop offset="0.362" stop-color="#4A43CB"/>
<stop offset="1" stop-color="#4A43CB" stop-opacity="0"/>
</radialGradient>
<linearGradient id="paint3_linear_2828_108527" x1="11.8089" y1="2.80649" x2="10.1871" y2="5.50946" gradientUnits="userSpaceOnUse">
<stop stop-color="#9FF0F9"/>
<stop offset="1" stop-color="#B3E0FF"/>
</linearGradient>
<linearGradient id="paint4_linear_2828_108527" x1="11.8154" y1="16.6836" x2="6.55365" y2="5.67778" gradientUnits="userSpaceOnUse">
<stop stop-color="#9DEAFF"/>
<stop offset="1" stop-color="white"/>
</linearGradient>
</defs>
</svg>
